<?xml version="1.0" encoding="iso-8859-1"?>
<!-- Uploaded to: SVG Repo, www.svgrepo.com, Generator: SVG Repo Mixer Tools -->
<svg version="1.1" id="Layer_1" xmlns="http://www.w3.org/2000/svg" xmlns:xlink="http://www.w3.org/1999/xlink" 
	 viewBox="0 0 512 512" xml:space="preserve">
<g>
	<rect x="150.965" y="233.034" style="fill:#FEE187;" width="70.019" height="75.73"/>
	<rect x="291.004" y="233.034" style="fill:#FEE187;" width="70.019" height="75.73"/>
	<rect x="80.945" y="308.757" style="fill:#FEE187;" width="70.019" height="75.73"/>
	<rect x="220.984" y="308.757" style="fill:#FEE187;" width="70.019" height="75.73"/>
	<rect x="361.023" y="308.757" style="fill:#FEE187;" width="70.019" height="75.73"/>
</g>
<g>
	<path style="fill:#FFC61B;" d="M431.049,218.44H80.951c-8.055,0-14.587,6.531-14.587,14.587s6.532,14.587,14.587,14.587h55.432
		v46.556H80.951c-8.055,0-14.587,6.531-14.587,14.587v75.732c0,8.057,6.532,14.587,14.587,14.587H291.01
		c8.055,0,14.587-6.531,14.587-14.587v-61.145h40.845v61.145c0,8.057,6.532,14.587,14.587,14.587h70.019
		c8.055,0,14.587-6.531,14.587-14.587v-75.732v-75.73C445.636,224.971,439.105,218.44,431.049,218.44z M416.461,294.171h-40.845
		v-46.556h40.845V294.171z M276.422,294.171h-40.845v-46.556h40.845V294.171z M206.403,294.171h-40.845v-46.556h40.845V294.171z
		 M95.539,323.346h40.845v46.557H95.539V323.346z M165.558,323.346h40.845v46.557h-40.845V323.346z M235.578,323.346h40.845v46.557
		h-40.845V323.346z M305.597,294.171v-46.556h40.845v46.556L305.597,294.171L305.597,294.171z M416.461,369.901h-40.845v-46.557
		h40.845V369.901z"/>
	<path style="fill:#FFC61B;" d="M497.413,156.441H373.312c-8.055,0-14.587,6.531-14.587,14.587c0,8.057,6.532,14.587,14.587,14.587
		h109.513v246.283H29.175V185.616H256c8.055,0,14.587-6.531,14.587-14.587V138.45h43.762c24.13,0,43.762-19.632,43.762-43.762
		S338.48,50.926,314.35,50.926H150.971c-8.055,0-14.587,6.531-14.587,14.587s6.532,14.587,14.587,14.587H314.35
		c8.043,0,14.587,6.544,14.587,14.587s-6.544,14.587-14.587,14.587H256c-8.055,0-14.587,6.531-14.587,14.587v32.578H14.587
		C6.532,156.441,0,162.972,0,171.028v275.458c0,8.057,6.532,14.587,14.587,14.587h482.825c8.055,0,14.587-6.531,14.587-14.587
		V171.028C512,162.972,505.469,156.441,497.413,156.441z"/>
</g>
</svg>